External Loads File
version=1
nRows=77
nColumns=13
Range=5.000000e-03-10 seconds
endheader
time 	forceRightX 	forceRightY 	forceRightZ 	pointRightX 	pointRightY 	pointRightZ 	forceLeftX 	forceLeftY 	forceLeftZ 	pointLeftX 	pointLeftY 	pointLeftZ 		
5.005000 35.930162 395.539429 -0.000000 0.422525 0.439551 -0.109664 147.084661 120.267541 -0.000000 0.202167 0.170020 -0.356525
5.010000 39.890828 438.887852 -0.000000 0.426845 0.432173 -0.109504 118.520202 39.824249 -0.000000 0.196277 0.177397 -0.356452
5.015000 39.957004 481.927526 -0.000000 0.430838 0.424374 -0.108790 87.953629 -33.168408 -0.000000 0.191240 0.184806 -0.356640
5.020000 36.478673 522.637700 -0.000000 0.434950 0.415910 -0.108667 56.522374 -96.599569 -0.000000 0.186973 0.192146 -0.357247
5.025000 29.656943 559.440906 -0.000000 0.438726 0.407065 -0.108998 25.331516 -148.839837 -0.000000 0.182893 0.199675 -0.355782
5.030000 19.365793 591.457862 -0.000000 0.442107 0.397663 -0.108827 -4.197033 -189.048151 -0.000000 0.179650 0.207491 -0.355889
5.035000 6.629552 618.489443 -0.000000 0.445191 0.387813 -0.108477 -30.864583 -217.284932 -0.000000 0.176845 0.215540 -0.356106
5.040000 -6.789817 640.997879 -0.000000 0.448113 0.377580 -0.108176 -53.877017 -234.227353 -0.000000 0.174346 0.224216 -0.356060
5.045000 -20.783861 659.890901 -0.000000 0.450570 0.367001 -0.107857 -72.047740 -241.210180 -0.000000 0.172175 0.233173 -0.355941
5.050000 -34.288193 676.262942 -0.000000 0.452803 0.356309 -0.107680 -84.857231 -239.945339 -0.000000 0.170473 0.242550 -0.355846
5.055000 -46.470977 691.251172 -0.000000 0.454569 0.345452 -0.107665 -92.160968 -232.360965 -0.000000 0.169169 0.252234 -0.355733
5.060000 -56.629580 705.914006 -0.000000 0.455854 0.334446 -0.107610 -94.238862 -220.396952 -0.000000 0.168352 0.262147 -0.355720
5.065000 -63.991089 721.140488 -0.000000 0.456604 0.323371 -0.107609 -91.794701 -205.828650 -0.000000 0.167967 0.272329 -0.355717
5.070000 -68.281467 737.509716 -0.000000 0.456769 0.312156 -0.107478 -85.708751 -190.213387 -0.000000 0.168179 0.282554 -0.355643
5.075000 -68.897024 755.309593 -0.000000 0.456542 0.300944 -0.107118 -77.170853 -174.688665 -0.000000 0.168973 0.292930 -0.355825
5.080000 -66.245090 774.441800 -0.000000 0.455455 0.289998 -0.107136 -67.181370 -160.082121 -0.000000 0.170278 0.303406 -0.355860
5.085000 -60.052373 794.699753 -0.000000 0.453984 0.279175 -0.106564 -56.802111 -146.753665 -0.000000 0.172208 0.313857 -0.355667
5.090000 -49.848768 815.831278 -0.000000 0.451763 0.268519 -0.107562 -46.904563 -134.788372 -0.000000 0.174782 0.324428 -0.355642
5.095000 -36.083817 837.465706 -0.000000 0.449072 0.257997 -0.107791 -37.982757 -124.174567 -0.000000 0.177917 0.334969 -0.355735
5.100000 -19.566187 859.157494 -0.000000 0.445839 0.247676 -0.107933 -30.291752 -114.799793 -0.000000 0.181694 0.345248 -0.355789
5.105000 0.417770 880.455232 -0.000000 0.441805 0.237543 -0.107780 -24.110514 -106.465334 -0.000000 0.185967 0.355470 -0.355697
5.110000 22.945326 900.860063 -0.000000 0.437259 0.227676 -0.107694 -19.396565 -99.067064 -0.000000 0.190810 0.365537 -0.355656
5.115000 46.925480 919.982421 -0.000000 0.432109 0.218196 -0.107718 -16.096240 -92.501173 -0.000000 0.196095 0.375306 -0.355615
5.120000 72.688929 937.459239 -0.000000 0.426459 0.209044 -0.107746 -14.287197 -86.603198 -0.000000 0.201980 0.384889 -0.355518
5.125000 99.351734 953.030354 -0.000000 0.420231 0.200346 -0.107743 -13.877884 -81.186126 -0.000000 0.208387 0.394127 -0.355425
5.130000 126.594004 966.439971 -0.000000 0.413518 0.192054 -0.107710 -14.792066 -76.001146 -0.000000 0.215180 0.403103 -0.355281
5.135000 153.540259 977.518321 -0.000000 0.406340 0.184304 -0.107695 -16.887417 -70.737367 -0.000000 0.222380 0.411642 -0.355042
5.140000 181.922351 985.661191 -0.000000 0.398735 0.176889 -0.107620 -20.190383 -64.953004 -0.000000 0.230502 0.419742 -0.355991
5.145000 208.635955 991.043389 -0.000000 0.390773 0.170023 -0.107560 -24.325973 -58.229666 -0.000000 0.238510 0.427722 -0.355637
5.150000 233.940571 993.311814 -0.000000 0.382445 0.163673 -0.107474 -29.069353 -50.053969 -0.000000 0.246846 0.435012 -0.355146
5.155000 257.370790 992.204218 -0.000000 0.373819 0.158032 -0.107316 -34.057251 -39.894597 -0.000000 0.255478 0.441529 -0.354689
5.160000 278.506555 987.402010 -0.000000 0.364927 0.152864 -0.107085 -38.864400 -27.229701 -0.000000 0.264072 0.447487 -0.353175
5.165000 299.582711 977.707947 -0.000000 0.355841 0.148163 -0.106852 -43.051953 -11.523194 -0.000000 0.273416 0.452935 -0.352818
5.170000 317.593564 963.318988 -0.000000 0.346632 0.144108 -0.106600 -45.997200 7.352945 -0.000000 0.282726 0.457726 -0.352269
5.175000 332.731347 943.501935 -0.000000 0.337201 0.140791 -0.106341 -47.182486 29.396575 -0.000000 0.292000 0.461817 -0.352566
5.180000 345.657091 917.370284 -0.000000 0.327690 0.138215 -0.106112 -46.080075 54.385190 -0.000000 0.301676 0.465254 -0.352197
5.185000 355.113614 884.919786 -0.000000 0.317988 0.135866 -0.106299 -42.323208 81.713384 -0.000000 0.311262 0.468198 -0.352242
5.190000 359.561706 846.671220 -0.000000 0.308342 0.134498 -0.106024 -35.852105 110.420203 -0.000000 0.320535 0.470510 -0.352310
5.195000 359.058212 802.971914 -0.000000 0.298793 0.133844 -0.105749 -26.782724 139.391900 -0.000000 0.329538 0.472291 -0.352351
5.200000 354.779834 754.112138 -0.000000 0.288970 0.133832 -0.105330 -15.294815 167.673471 -0.000000 0.338332 0.473453 -0.352625
5.205000 344.945398 702.163455 -0.000000 0.279631 0.134574 -0.105263 -2.458885 194.809629 -0.000000 0.346646 0.474177 -0.353372
5.210000 331.872785 647.505326 -0.000000 0.270625 0.136143 -0.105088 11.376690 221.174126 -0.000000 0.354815 0.473789 -0.354211
5.215000 316.749671 590.944313 -0.000000 0.261112 0.138357 -0.105459 25.730944 247.564060 -0.000000 0.362357 0.473019 -0.354532
5.220000 299.480998 533.695469 -0.000000 0.251984 0.141036 -0.105398 39.551654 274.936137 -0.000000 0.369414 0.471549 -0.355145
5.225000 281.759162 475.576590 -0.000000 0.243072 0.144444 -0.105336 52.466089 303.954280 -0.000000 0.376060 0.469152 -0.355816
5.230000 264.090780 416.516862 -0.000000 0.234361 0.148532 -0.105292 63.577394 334.875255 -0.000000 0.382083 0.465894 -0.356361
5.235000 247.153809 355.836405 -0.000000 0.225907 0.153101 -0.105225 72.208916 367.368254 -0.000000 0.388112 0.462288 -0.357253
5.240000 230.931169 292.875089 -0.000000 0.217622 0.158516 -0.105400 77.605447 400.657564 -0.000000 0.393795 0.457928 -0.357841
5.245000 214.520422 227.447134 -0.000000 0.209969 0.164207 -0.105127 78.574153 433.758296 -0.000000 0.399266 0.452716 -0.358383
5.250000 197.389036 159.115454 -0.000000 0.202787 0.170603 -0.104993 75.388576 465.290745 -0.000000 0.404596 0.446615 -0.359017
5.255000 178.088320 88.683295 -0.000000 0.196436 0.177454 -0.104750 67.434984 494.147679 -0.000000 0.409842 0.439968 -0.359594
5.260000 155.602938 17.301316 -0.000000 0.190784 0.184684 -0.104486 55.140198 519.374587 -0.000000 0.415084 0.432874 -0.359758
5.265000 129.119316 -53.144141 -0.000000 0.185969 0.192208 -0.104274 38.901056 540.508205 -0.000000 0.420280 0.425241 -0.359602
5.270000 98.410311 -120.382317 -0.000000 0.181997 0.199677 -0.104028 19.161459 557.579579 -0.000000 0.425235 0.416893 -0.359592
5.275000 63.726636 -182.241109 -0.000000 0.178532 0.207285 -0.104024 -2.448767 571.020585 -0.000000 0.430100 0.408024 -0.359669
5.280000 26.253504 -236.476040 -0.000000 0.175908 0.215148 -0.103725 -25.360380 581.645951 -0.000000 0.434676 0.398812 -0.359702
5.285000 -12.615332 -281.291551 -0.000000 0.173348 0.223219 -0.103824 -47.818572 590.513436 -0.000000 0.438806 0.389266 -0.359741
5.290000 -50.752851 -315.294408 -0.000000 0.171367 0.231595 -0.103824 -69.170317 598.801869 -0.000000 0.442511 0.379412 -0.359629
5.295000 -86.429611 -337.659995 -0.000000 0.169682 0.240490 -0.103853 -87.853600 607.801560 -0.000000 0.445745 0.369222 -0.359529
5.300000 -117.759366 -348.282671 -0.000000 0.167657 0.249665 -0.104762 -103.088400 618.564821 -0.000000 0.448569 0.358747 -0.359283
5.305000 -142.455368 -348.152055 -0.000000 0.166613 0.259181 -0.104988 -115.612232 631.530440 -0.000000 0.450841 0.348132 -0.359075
5.310000 -159.521473 -338.779377 -0.000000 0.166814 0.268963 -0.104576 -125.119019 646.950927 -0.000000 0.452544 0.337373 -0.358714
5.315000 -169.479873 -321.659152 -0.000000 0.165715 0.278977 -0.105389 -129.762585 665.166481 -0.000000 0.453728 0.326333 -0.358680
5.320000 -171.911319 -299.265390 -0.000000 0.165841 0.289163 -0.105639 -130.845938 685.759796 -0.000000 0.454280 0.315007 -0.358858
5.325000 -167.700158 -273.789942 -0.000000 0.166169 0.299637 -0.106033 -128.576293 708.436690 -0.000000 0.454296 0.303787 -0.358789
5.330000 -157.825429 -247.395546 -0.000000 0.167541 0.310011 -0.106340 -124.293504 732.662384 -0.000000 0.453948 0.292732 -0.358507
5.335000 -144.442581 -221.215600 -0.000000 0.169072 0.320681 -0.106792 -116.738843 758.346931 -0.000000 0.452783 0.281689 -0.358151
5.340000 -128.789104 -196.487109 -0.000000 0.171493 0.331326 -0.107046 -107.190595 784.954481 -0.000000 0.451037 0.270895 -0.357795
5.345000 -112.228174 -173.825406 -0.000000 0.174172 0.341730 -0.107412 -96.365169 812.086008 -0.000000 0.448680 0.260317 -0.357499
5.350000 -96.303686 -153.203552 -0.000000 0.177774 0.352135 -0.107668 -82.789709 839.618953 -0.000000 0.445620 0.249869 -0.357292
5.355000 -81.753415 -134.714556 -0.000000 0.181876 0.362387 -0.108086 -66.766372 867.149555 -0.000000 0.441982 0.239437 -0.357170
5.360000 -68.929339 -118.417566 -0.000000 0.186757 0.372336 -0.108492 -49.550581 894.162042 -0.000000 0.437814 0.229509 -0.356983
5.365000 -58.355983 -104.125708 -0.000000 0.191957 0.382258 -0.109035 -30.047044 920.264213 -0.000000 0.433089 0.219793 -0.356769
5.370000 -50.215264 -91.771309 -0.000000 0.197820 0.391822 -0.109320 -8.582332 944.931292 -0.000000 0.427730 0.210357 -0.356341
5.375000 -44.610891 -81.194654 -0.000000 0.204106 0.401254 -0.109805 14.575699 967.621910 -0.000000 0.421881 0.201284 -0.356235
5.380000 -41.512315 -72.102767 -0.000000 0.210952 0.410117 -0.110226 38.879142 987.736198 -0.000000 0.415544 0.192476 -0.356166
5.385000 -40.717471 -64.057931 -0.000000 0.218022 0.418727 -0.110836 63.065680 1004.700167 -0.000000 0.408916 0.184244 -0.356498
